<svg width="16" height="17" viewBox="0 0 16 17" fill="none" xmlns="http://www.w3.org/2000/svg">
<path d="M3.64627 16.478V5.96631H0.376742V16.478H3.64627ZM1.99393 4.56006C3.04862 4.56006 3.89237 3.68115 3.89237 2.62646C3.89237 1.60693 3.04862 0.763184 1.99393 0.763184C0.974399 0.763184 0.130649 1.60693 0.130649 2.62646C0.130649 3.68115 0.974399 4.56006 1.99393 4.56006ZM15.8455 16.478H15.8806V10.7124C15.8806 7.8999 15.2478 5.72021 11.9431 5.72021C10.3611 5.72021 9.30643 6.59912 8.8494 7.40771H8.81424V5.96631H5.68534V16.478H8.95487V11.2749C8.95487 9.90381 9.20096 8.60303 10.8885 8.60303C12.576 8.60303 12.6111 10.1499 12.6111 11.3804V16.478H15.8455Z" fill="#292F36"/>
</svg>
