<svg width="19" height="16" viewBox="0 0 19 16" fill="none" xmlns="http://www.w3.org/2000/svg">
<path d="M16.9557 4.07178C17.6588 3.54443 18.2916 2.91162 18.7838 2.17334C18.151 2.45459 17.4127 2.66553 16.6744 2.73584C17.4479 2.27881 18.0104 1.57568 18.2916 0.696777C17.5885 1.11865 16.7799 1.43506 15.9713 1.61084C15.2682 0.872559 14.319 0.450684 13.2643 0.450684C11.2252 0.450684 9.57288 2.10303 9.57288 4.14209C9.57288 4.42334 9.60804 4.70459 9.67835 4.98584C6.61976 4.81006 3.87757 3.3335 2.04945 1.11865C1.73304 1.646 1.55726 2.27881 1.55726 2.98193C1.55726 4.24756 2.19007 5.37256 3.2096 6.04053C2.61195 6.00537 2.01429 5.86475 1.5221 5.5835V5.61865C1.5221 7.41162 2.78773 8.88818 4.47523 9.23975C4.19398 9.31006 3.84241 9.38037 3.52601 9.38037C3.27991 9.38037 3.06898 9.34521 2.82288 9.31006C3.27991 10.7866 4.65101 11.8413 6.2682 11.8765C5.00257 12.8608 3.42054 13.4585 1.69788 13.4585C1.38148 13.4585 1.10023 13.4233 0.818977 13.3882C2.43616 14.4429 4.36976 15.0405 6.47913 15.0405C13.2643 15.0405 16.9557 9.45068 16.9557 4.56396C16.9557 4.38818 16.9557 4.24756 16.9557 4.07178Z" fill="#292F36"/>
</svg>
